<svg width="36" height="36" viewBox="0 0 36 36" fill="none" xmlns="http://www.w3.org/2000/svg">
<path d="M19.542 3.00151C20.6366 2.99731 21.7312 3.00831 22.8255 3.03451L23.1165 3.04501C23.4525 3.05701 23.784 3.07201 24.1845 3.09001C25.7805 3.16501 26.8695 3.41701 27.825 3.78751C28.815 4.16851 29.649 4.68451 30.483 5.51851C31.2456 6.26792 31.8358 7.17443 32.2125 8.17501C32.583 9.13051 32.835 10.221 32.91 11.817C32.928 12.216 32.943 12.549 32.955 12.885L32.964 13.176C32.9907 14.2698 33.0022 15.3639 32.9985 16.458L33 17.577V19.542C33.0037 20.6366 32.9922 21.7312 32.9655 22.8255L32.9565 23.1165C32.9445 23.4525 32.9295 23.784 32.9115 24.1845C32.8365 25.7805 32.5815 26.8695 32.2125 27.825C31.837 28.8267 31.2467 29.7339 30.483 30.483C29.733 31.2455 28.826 31.8356 27.825 32.2125C26.8695 32.583 25.7805 32.835 24.1845 32.91C23.784 32.928 23.4525 32.943 23.1165 32.955L22.8255 32.964C21.7312 32.9907 20.6366 33.0022 19.542 32.9985L18.423 33H16.4595C15.3649 33.0037 14.2703 32.9922 13.176 32.9655L12.885 32.9565C12.5289 32.9436 12.1729 32.9286 11.817 32.9115C10.221 32.8365 9.13201 32.5815 8.17501 32.2125C7.17404 31.8365 6.26737 31.2462 5.51851 30.483C4.75508 29.7334 4.16435 28.8263 3.78751 27.825C3.41701 26.8695 3.16501 25.7805 3.09001 24.1845C3.07331 23.8286 3.05831 23.4726 3.04501 23.1165L3.03751 22.8255C3.00986 21.7312 2.99736 20.6366 3.00001 19.542V16.458C2.99582 15.3639 3.00683 14.2698 3.03301 13.176L3.04351 12.885C3.05551 12.549 3.07051 12.216 3.08851 11.817C3.16351 10.2195 3.41551 9.13201 3.78601 8.17501C4.16307 7.17394 4.75496 6.26768 5.52001 5.52001C6.26835 4.75614 7.17445 4.16487 8.17501 3.78751C9.13201 3.41701 10.2195 3.16501 11.817 3.09001L12.885 3.04501L13.176 3.03751C14.2698 3.00987 15.3639 2.99737 16.458 3.00001L19.542 3.00151ZM18 10.5015C17.0063 10.4875 16.0196 10.671 15.0975 11.0416C14.1753 11.4122 13.336 11.9623 12.6283 12.6601C11.9206 13.3579 11.3586 14.1893 10.975 15.1062C10.5915 16.023 10.3939 17.0069 10.3939 18.0008C10.3939 18.9946 10.5915 19.9785 10.975 20.8954C11.3586 21.8122 11.9206 22.6437 12.6283 23.3414C13.336 24.0392 14.1753 24.5893 15.0975 24.9599C16.0196 25.3305 17.0063 25.5141 18 25.5C19.9891 25.5 21.8968 24.7098 23.3033 23.3033C24.7098 21.8968 25.5 19.9891 25.5 18C25.5 16.0109 24.7098 14.1032 23.3033 12.6967C21.8968 11.2902 19.9891 10.5015 18 10.5015ZM18 13.5015C18.5978 13.4905 19.1917 13.5987 19.7472 13.8198C20.3027 14.0409 20.8085 14.3705 21.2352 14.7893C21.6618 15.2081 22.0008 15.7078 22.2322 16.259C22.4636 16.8103 22.5828 17.4021 22.5829 18C22.583 18.5979 22.464 19.1897 22.2328 19.7411C22.0015 20.2924 21.6628 20.7922 21.2362 21.2111C20.8097 21.6301 20.304 21.9598 19.7486 22.1811C19.1932 22.4024 18.5993 22.5108 18.0015 22.5C16.808 22.5 15.6634 22.0259 14.8195 21.182C13.9756 20.3381 13.5015 19.1935 13.5015 18C13.5015 16.8065 13.9756 15.6619 14.8195 14.818C15.6634 13.9741 16.808 13.5 18.0015 13.5L18 13.5015ZM25.875 8.25151C25.3911 8.27088 24.9335 8.47674 24.5979 8.82597C24.2624 9.1752 24.075 9.64071 24.075 10.125C24.075 10.6093 24.2624 11.0748 24.5979 11.4241C24.9335 11.7733 25.3911 11.9791 25.875 11.9985C26.3723 11.9985 26.8492 11.801 27.2008 11.4493C27.5525 11.0977 27.75 10.6208 27.75 10.1235C27.75 9.62623 27.5525 9.14932 27.2008 8.79769C26.8492 8.44605 26.3723 8.24851 25.875 8.24851V8.25151Z" fill="#EE743D"/>
</svg>
