<svg width="22" height="16" viewBox="0 0 22 16" fill="none" xmlns="http://www.w3.org/2000/svg">
<path d="M1.33301 7C0.780723 7 0.333008 7.44772 0.333008 8C0.333008 8.55228 0.780723 9 1.33301 9V7ZM21.3035 8.70711C21.6941 8.31658 21.6941 7.68342 21.3035 7.29289L14.9396 0.928932C14.549 0.538408 13.9159 0.538408 13.5254 0.928932C13.1348 1.31946 13.1348 1.95262 13.5254 2.34315L19.1822 8L13.5254 13.6569C13.1348 14.0474 13.1348 14.6805 13.5254 15.0711C13.9159 15.4616 14.549 15.4616 14.9396 15.0711L21.3035 8.70711ZM1.33301 9L20.5964 9V7L1.33301 7V9Z" fill="#9A9EA5"/>
</svg>
