<svg width="24" height="24" viewBox="0 0 24 24" fill="none" xmlns="http://www.w3.org/2000/svg">
<path d="M3.99961 10.4V9.6H3.19961V10.4H3.99961ZM10.3996 10.4V9.6H9.59961V10.4H10.3996ZM10.3996 16.8H9.59961V17.6H10.3996V16.8ZM21.5996 5.6H22.3996V5.2688L22.166 5.0336L21.5996 5.6ZM16.7996 0.8L17.366 0.2336L17.1308 0H16.7996V0.8ZM3.99961 11.2H5.59961V9.6H3.99961V11.2ZM4.79961 17.6V13.6H3.19961V17.6H4.79961ZM4.79961 13.6V10.4H3.19961V13.6H4.79961ZM5.59961 12.8H3.99961V14.4H5.59961V12.8ZM6.39961 12C6.39961 12.2122 6.31532 12.4157 6.1653 12.5657C6.01527 12.7157 5.81178 12.8 5.59961 12.8V14.4C6.23613 14.4 6.84658 14.1471 7.29667 13.6971C7.74675 13.247 7.99961 12.6365 7.99961 12H6.39961ZM5.59961 11.2C5.81178 11.2 6.01527 11.2843 6.1653 11.4343C6.31532 11.5843 6.39961 11.7878 6.39961 12H7.99961C7.99961 11.3635 7.74675 10.753 7.29667 10.3029C6.84658 9.85286 6.23613 9.6 5.59961 9.6V11.2ZM9.59961 10.4V16.8H11.1996V10.4H9.59961ZM10.3996 17.6H11.9996V16H10.3996V17.6ZM14.3996 15.2V12H12.7996V15.2H14.3996ZM11.9996 9.6H10.3996V11.2H11.9996V9.6ZM14.3996 12C14.3996 11.3635 14.1468 10.753 13.6967 10.3029C13.2466 9.85286 12.6361 9.6 11.9996 9.6V11.2C12.2118 11.2 12.4153 11.2843 12.5653 11.4343C12.7153 11.5843 12.7996 11.7878 12.7996 12H14.3996ZM11.9996 17.6C12.6361 17.6 13.2466 17.3471 13.6967 16.8971C14.1468 16.447 14.3996 15.8365 14.3996 15.2H12.7996C12.7996 15.4122 12.7153 15.6157 12.5653 15.7657C12.4153 15.9157 12.2118 16 11.9996 16V17.6ZM15.9996 9.6V17.6H17.5996V9.6H15.9996ZM16.7996 11.2H20.7996V9.6H16.7996V11.2ZM16.7996 14.4H19.1996V12.8H16.7996V14.4ZM3.19961 8V2.4H1.59961V8H3.19961ZM20.7996 5.6V8H22.3996V5.6H20.7996ZM3.99961 1.6H16.7996V0H3.99961V1.6ZM16.2332 1.3664L21.0332 6.1664L22.166 5.0336L17.366 0.2336L16.2332 1.3664ZM3.19961 2.4C3.19961 2.18783 3.2839 1.98434 3.43392 1.83431C3.58395 1.68429 3.78744 1.6 3.99961 1.6V0C3.36309 0 2.75264 0.252856 2.30255 0.702944C1.85247 1.15303 1.59961 1.76348 1.59961 2.4H3.19961ZM1.59961 19.2V21.6H3.19961V19.2H1.59961ZM3.99961 24H19.9996V22.4H3.99961V24ZM22.3996 21.6V19.2H20.7996V21.6H22.3996ZM19.9996 24C20.6361 24 21.2466 23.7471 21.6967 23.2971C22.1468 22.847 22.3996 22.2365 22.3996 21.6H20.7996C20.7996 21.8122 20.7153 22.0157 20.5653 22.1657C20.4153 22.3157 20.2118 22.4 19.9996 22.4V24ZM1.59961 21.6C1.59961 22.2365 1.85247 22.847 2.30255 23.2971C2.75264 23.7471 3.36309 24 3.99961 24V22.4C3.78744 22.4 3.58395 22.3157 3.43392 22.1657C3.2839 22.0157 3.19961 21.8122 3.19961 21.6H1.59961Z" fill="#262626"/>
</svg>
