<svg width="40" height="41" viewBox="0 0 40 41" fill="none" xmlns="http://www.w3.org/2000/svg">
<circle cx="20" cy="20.3333" r="20" fill="#D9D9D9"/>
<circle cx="20" cy="20.3333" r="20" fill="url(#paint0_linear_512_651)"/>
<path d="M20 18.3333C22.2091 18.3333 24 16.5424 24 14.3333C24 12.1242 22.2091 10.3333 20 10.3333C17.7909 10.3333 16 12.1242 16 14.3333C16 16.5424 17.7909 18.3333 20 18.3333Z" fill="white"/>
<path d="M28 25.8333C28 28.3183 28 30.3333 20 30.3333C12 30.3333 12 28.3183 12 25.8333C12 23.3483 15.582 21.3333 20 21.3333C24.418 21.3333 28 23.3483 28 25.8333Z" fill="white"/>
<defs>
<linearGradient id="paint0_linear_512_651" x1="-15.4217" y1="22.7333" x2="124.337" y2="22.7333" gradientUnits="userSpaceOnUse">
<stop stop-color="#DA345C"/>
<stop offset="1" stop-color="#E1A912"/>
</linearGradient>
</defs>
</svg>
