<svg width="44" height="44" viewBox="0 0 44 44" fill="none" xmlns="http://www.w3.org/2000/svg">
<path d="M18.3337 27.5003L27.8487 22.0003L18.3337 16.5003V27.5003ZM39.527 13.1453C39.7653 14.007 39.9303 15.162 40.0403 16.6287C40.1687 18.0953 40.2237 19.3603 40.2237 20.4603L40.3337 22.0003C40.3337 26.0153 40.0403 28.967 39.527 30.8553C39.0687 32.5053 38.0053 33.5687 36.3553 34.027C35.4937 34.2653 33.917 34.4303 31.497 34.5403C29.1137 34.6687 26.932 34.7237 24.9153 34.7237L22.0003 34.8337C14.3187 34.8337 9.53366 34.5403 7.64533 34.027C5.99533 33.5687 4.93199 32.5053 4.47366 30.8553C4.23533 29.9937 4.07033 28.8387 3.96033 27.372C3.83199 25.9053 3.77699 24.6403 3.77699 23.5403L3.66699 22.0003C3.66699 17.9853 3.96033 15.0337 4.47366 13.1453C4.93199 11.4953 5.99533 10.432 7.64533 9.97366C8.50699 9.73533 10.0837 9.57033 12.5037 9.46033C14.887 9.33199 17.0687 9.27699 19.0853 9.27699L22.0003 9.16699C29.682 9.16699 34.467 9.46033 36.3553 9.97366C38.0053 10.432 39.0687 11.4953 39.527 13.1453Z" fill="white"/>
</svg>
